<svg width="24" height="24" viewBox="0 0 24 24" fill="none" xmlns="http://www.w3.org/2000/svg">
<path d="M4 11.8035V13.936C4 14.9652 4.78108 15.8264 5.8054 15.9265L6 15.9455L9.5 16.2877L16.3778 16.9601C14.7952 16.6483 13.5714 14.5465 13.5714 12C13.5714 9.76727 14.5122 7.87634 15.8108 7.23413L7.5 9.35628L5.50518 9.86565C4.61961 10.0918 4 10.8895 4 11.8035Z" fill="#CDC4D8"/>
<path d="M16.7857 17C18.5609 17 20 14.7614 20 12C20 9.23858 18.5609 7 16.7857 7C16.4458 7 16.1183 7.08206 15.8108 7.23413M16.7857 17L16.3778 16.9601M16.7857 17C16.6475 17 16.5114 16.9864 16.3778 16.9601M15.8108 7.23413C14.5122 7.87634 13.5714 9.76727 13.5714 12C13.5714 14.5465 14.7952 16.6483 16.3778 16.9601M15.8108 7.23413L7.5 9.35628M6 15.9455L5.8054 15.9265C4.78108 15.8264 4 14.9652 4 13.936V11.8035C4 10.8895 4.61961 10.0918 5.50518 9.86565L7.5 9.35628M6 15.9455L6.7785 19.4912C6.9123 20.1006 7.40338 20.5672 8.01878 20.6698C9.0147 20.8358 9.8946 20.0067 9.78807 19.0027L9.5 16.2877M6 15.9455L9.5 16.2877M9.5 16.2877L16.3778 16.9601M7.5 9.35628V6.5M9 4.5C9 5.32843 8.32843 6 7.5 6C6.67157 6 6 5.32843 6 4.5C6 3.67157 6.67157 3 7.5 3C8.32843 3 9 3.67157 9 4.5Z" stroke="#1A0C21" stroke-width="1.5" stroke-linecap="round"/>
</svg>
