<svg width="24" height="24" viewBox="0 0 24 24" fill="none" xmlns="http://www.w3.org/2000/svg">
<path d="M3.24455 13.8057C2.81877 11.8188 2.60588 10.8253 2.86701 10.0464C3.096 9.36338 3.56312 8.78555 4.18302 8.41853C4.88991 8 5.90594 8 7.938 8H16.0629C18.095 8 19.111 8 19.8179 8.41853C20.4378 8.78555 20.9049 9.36338 21.1339 10.0464C21.395 10.8253 21.1821 11.8188 20.7564 13.8057L20.3556 15.6762C19.8723 17.9313 19.6307 19.0588 19.0307 19.9011C18.5014 20.644 17.7791 21.2279 16.9418 21.5898C15.9925 22 14.8394 22 12.5331 22H11.4678C9.16152 22 8.00838 22 7.05908 21.5898C6.22182 21.2279 5.49948 20.644 4.97025 19.9011C4.37021 19.0588 4.1286 17.9313 3.64537 15.6762L3.24455 13.8057Z" fill="#CDC4D8"/>
<path d="M16.0009 8V5.42857C16.0009 3.53502 14.2101 2 12.0009 2C9.79181 2 8.00095 3.53502 8.00095 5.42857V8M11.4678 22H12.5331C14.8394 22 15.9925 22 16.9418 21.5898C17.7791 21.2279 18.5014 20.644 19.0307 19.9011C19.6307 19.0588 19.8723 17.9313 20.3556 15.6762L20.7564 13.8057C21.1821 11.8188 21.395 10.8253 21.1339 10.0464C20.9049 9.36338 20.4378 8.78555 19.8179 8.41853C19.111 8 18.095 8 16.0629 8H7.938C5.90594 8 4.88991 8 4.18302 8.41853C3.56312 8.78555 3.096 9.36338 2.86701 10.0464C2.60588 10.8253 2.81877 11.8188 3.24455 13.8057L3.64537 15.6762C4.1286 17.9313 4.37021 19.0588 4.97025 19.9011C5.49948 20.644 6.22181 21.2279 7.05908 21.5898C8.00838 22 9.16152 22 11.4678 22Z" stroke="#1A0C21" stroke-width="1.5" stroke-linecap="round" stroke-linejoin="round"/>
</svg>
