<svg width="24" height="24" viewBox="0 0 24 24" fill="none" xmlns="http://www.w3.org/2000/svg">
<path d="M22 12C22 10.6193 20.8807 9.5 19.5 9.5H7V14.5H19.5C20.8807 14.5 22 13.3807 22 12Z" fill="#CDC4D8"/>
<path d="M2 17C2 15.6193 3.11929 14.5 4.5 14.5H17V19.5H4.5C3.11929 19.5 2 18.3807 2 17Z" fill="#CDC4D8"/>
<path d="M2 7C2 5.61929 3.11929 4.5 4.5 4.5H17V9.5H4.5C3.11929 9.5 2 8.38071 2 7Z" fill="#CDC4D8"/>
<path d="M7 9.5H19.5C20.8807 9.5 22 10.6193 22 12C22 13.3807 20.8807 14.5 19.5 14.5H7M7 9.5V14.5M7 9.5H5M7 14.5H5M17 14.5H4.5C3.11929 14.5 2 15.6193 2 17C2 18.3807 3.11929 19.5 4.5 19.5H17M17 14.5V19.5M17 14.5H19M17 19.5H19M17 4.5H4.5C3.11929 4.5 2 5.61929 2 7C2 8.38071 3.11929 9.5 4.5 9.5H17M17 4.5V9.5M17 4.5H19M17 9.5H19" stroke="#1A0C21" stroke-width="1.5" stroke-linecap="round" stroke-linejoin="round"/>
</svg>
