<svg width="24" height="24" viewBox="0 0 24 24" fill="none" xmlns="http://www.w3.org/2000/svg">
<path d="M15 21C16.6569 21 18 19.6569 18 18C18 17.6475 17.9392 17.3093 17.8276 16.9951C17.8846 16.9984 17.9421 17 18 17C19.6569 17 21 15.6569 21 14C21 13.2316 20.7111 12.5308 20.2361 12C20.7111 11.4692 21 10.7684 21 10C21 8.34314 19.6569 7 18 7C17.9421 7 17.8846 7.00164 17.8276 7.00487C17.9392 6.69072 18 6.35246 18 6C18 4.34315 16.6569 3 15 3C13.3431 3 12 4.34315 12 6V18C12 19.6569 13.3431 21 15 21Z" fill="#CDC4D8"/>
<path d="M9 3C7.34315 3 6 4.34315 6 6C6 6.35246 6.06078 6.69072 6.17243 7.00487C6.11537 7.00164 6.05788 7 6 7C4.34315 7 3 8.34315 3 10C3 10.7684 3.28885 11.4692 3.76389 12C3.28885 12.5308 3 13.2316 3 14C3 15.6569 4.34315 17 6 17C6.05787 17 6.11537 16.9984 6.17243 16.9951C6.06078 17.3093 6 17.6475 6 18C6 19.6569 7.34315 21 9 21C10.6569 21 12 19.6569 12 18V6C12 4.34315 10.6569 3 9 3Z" fill="#CDC4D8"/>
<path d="M12 18C12 19.6569 13.3431 21 15 21C16.6569 21 18 19.6569 18 18C18 17.6475 17.9392 17.3093 17.8276 16.9951C17.8846 16.9984 17.9421 17 18 17C19.6569 17 21 15.6569 21 14C21 13.2316 20.7111 12.5308 20.2361 12C20.7111 11.4692 21 10.7684 21 10C21 8.34314 19.6569 7 18 7C17.9421 7 17.8846 7.00164 17.8276 7.00487C17.9392 6.69072 18 6.35246 18 6C18 4.34315 16.6569 3 15 3C13.3431 3 12 4.34315 12 6M12 18V6M12 18C12 19.6569 10.6569 21 9 21C7.34315 21 6 19.6569 6 18C6 17.6475 6.06078 17.3093 6.17243 16.9951C6.11537 16.9984 6.05787 17 6 17C4.34315 17 3 15.6569 3 14C3 13.2316 3.28885 12.5308 3.76389 12C3.28885 11.4692 3 10.7684 3 10C3 8.34315 4.34315 7 6 7C6.05788 7 6.11537 7.00164 6.17243 7.00487C6.06078 6.69072 6 6.35246 6 6C6 4.34315 7.34315 3 9 3C10.6569 3 12 4.34315 12 6" stroke="#1A0C21" stroke-width="1.5" stroke-linejoin="round"/>
</svg>
