<svg width="24" height="24" viewBox="0 0 24 24" fill="none" xmlns="http://www.w3.org/2000/svg">
<path d="M9.1851 7.63623L8 7.63636L9.1851 7.63623Z" fill="#CDC4D8"/>
<path d="M9.1851 16.3635L8 16.3636L9.1851 16.3635Z" fill="#CDC4D8"/>
<path d="M2 9C2 5.13401 5.13401 2 9 2H15C18.866 2 22 5.13401 22 9V15C22 18.866 18.866 22 15 22H9C5.13401 22 2 18.866 2 15V9Z" fill="#CDC4D8"/>
<path d="M9.1851 7.63623L9.18512 6.88623H9.18501L9.1851 7.63623ZM11.1204 6C11.1204 5.58579 10.7846 5.25 10.3704 5.25C9.95616 5.25 9.62037 5.58579 9.62037 6H11.1204ZM9.62037 7.63636C9.62037 8.05058 9.95616 8.38636 10.3704 8.38636C10.7846 8.38636 11.1204 8.05058 11.1204 7.63636H9.62037ZM11.1204 16.3636C11.1204 15.9494 10.7846 15.6136 10.3704 15.6136C9.95616 15.6136 9.62037 15.9494 9.62037 16.3636H11.1204ZM9.62037 18C9.62037 18.4142 9.95616 18.75 10.3704 18.75C10.7846 18.75 11.1204 18.4142 11.1204 18H9.62037ZM13.4907 6.54545C13.4907 6.13124 13.155 5.79545 12.7407 5.79545C12.3265 5.79545 11.9907 6.13124 11.9907 6.54545H13.4907ZM11.9907 7.63636C11.9907 8.05058 12.3265 8.38636 12.7407 8.38636C13.155 8.38636 13.4907 8.05058 13.4907 7.63636H11.9907ZM13.4907 16.3636C13.4907 15.9494 13.155 15.6136 12.7407 15.6136C12.3265 15.6136 11.9907 15.9494 11.9907 16.3636H13.4907ZM11.9907 17.4545C11.9907 17.8688 12.3265 18.2045 12.7407 18.2045C13.155 18.2045 13.4907 17.8688 13.4907 17.4545H11.9907ZM13.037 7.63636L13.037 8.38636H13.037V7.63636ZM9.18518 11.25C8.77097 11.25 8.43518 11.5858 8.43518 12C8.43518 12.4142 8.77097 12.75 9.18518 12.75V11.25ZM7.99992 6.88636C7.5857 6.88641 7.24995 7.22223 7.25 7.63645C7.25005 8.05066 7.58587 8.38641 8.00008 8.38636L7.99992 6.88636ZM7.99992 15.6136C7.5857 15.6137 7.24995 15.9495 7.25 16.3637C7.25005 16.7779 7.58587 17.1137 8.00008 17.1136L7.99992 15.6136ZM13.6296 16.3636L13.6296 17.1136H13.6296V16.3636ZM8.4351 7.63623V16.3635H9.9351V7.63623H8.4351ZM9.62037 6V7.63636H11.1204V6H9.62037ZM9.62037 16.3636V18H11.1204V16.3636H9.62037ZM11.9907 6.54545V7.63636H13.4907V6.54545H11.9907ZM11.9907 16.3636V17.4545H13.4907V16.3636H11.9907ZM9.18507 8.38623L13.037 8.38636L13.0371 6.88636L9.18512 6.88623L9.18507 8.38623ZM13.037 11.25H9.18518V12.75H13.037V11.25ZM14.6574 9.81818C14.6574 10.5516 13.9917 11.25 13.037 11.25V12.75C14.7006 12.75 16.1574 11.4947 16.1574 9.81818H14.6574ZM13.037 8.38636C13.9917 8.38636 14.6574 9.08473 14.6574 9.81818H16.1574C16.1574 8.14167 14.7006 6.88636 13.037 6.88636V8.38636ZM9.18501 6.88623L7.99992 6.88636L8.00008 8.38636L9.18518 8.38623L9.18501 6.88623ZM9.18501 15.6135L7.99992 15.6136L8.00008 17.1136L9.18518 17.1135L9.18501 15.6135ZM9.18518 12.75H13.6296V11.25H9.18518V12.75ZM13.6297 15.6136L9.18512 15.6135L9.18507 17.1135L13.6296 17.1136L13.6297 15.6136ZM15.25 14.1818C15.25 14.9153 14.5843 15.6136 13.6296 15.6136V17.1136C15.2932 17.1136 16.75 15.8583 16.75 14.1818H15.25ZM13.6296 12.75C14.5843 12.75 15.25 13.4484 15.25 14.1818H16.75C16.75 12.5053 15.2932 11.25 13.6296 11.25V12.75ZM9 2.75H15V1.25H9V2.75ZM21.25 9V15H22.75V9H21.25ZM15 21.25H9V22.75H15V21.25ZM2.75 15V9H1.25V15H2.75ZM9 21.25C5.54822 21.25 2.75 18.4518 2.75 15H1.25C1.25 19.2802 4.71979 22.75 9 22.75V21.25ZM21.25 15C21.25 18.4518 18.4518 21.25 15 21.25V22.75C19.2802 22.75 22.75 19.2802 22.75 15H21.25ZM15 2.75C18.4518 2.75 21.25 5.54822 21.25 9H22.75C22.75 4.71979 19.2802 1.25 15 1.25V2.75ZM9 1.25C4.71979 1.25 1.25 4.71979 1.25 9H2.75C2.75 5.54822 5.54822 2.75 9 2.75V1.25Z" fill="#1A0C21"/>
</svg>
