<svg width="24" height="24" viewBox="0 0 24 24" fill="none" xmlns="http://www.w3.org/2000/svg">
<path d="M3 12C3 9.19974 3 7.79961 3.54497 6.73005C4.02433 5.78924 4.78924 5.02433 5.73005 4.54497C6.79961 4 8.19974 4 11 4H13C15.8003 4 17.2004 4 18.27 4.54497C19.2108 5.02433 19.9757 5.78924 20.455 6.73005C21 7.79961 21 9.19974 21 12V14C21 16.8003 21 18.2004 20.455 19.27C19.9757 20.2108 19.2108 20.9757 18.27 21.455C17.2004 22 15.8003 22 13 22H11C8.19974 22 6.79961 22 5.73005 21.455C4.78924 20.9757 4.02433 20.2108 3.54497 19.27C3 18.2004 3 16.8003 3 14V12Z" fill="#CDC4D8"/>
<path d="M8 9.5H16M8 3.5V2M16 3.5V2M11 22H13C15.8003 22 17.2004 22 18.27 21.455C19.2108 20.9757 19.9757 20.2108 20.455 19.27C21 18.2004 21 16.8003 21 14V12C21 9.19974 21 7.79961 20.455 6.73005C19.9757 5.78924 19.2108 5.02433 18.27 4.54497C17.2004 4 15.8003 4 13 4H11C8.19974 4 6.79961 4 5.73005 4.54497C4.78924 5.02433 4.02433 5.78924 3.54497 6.73005C3 7.79961 3 9.19974 3 12V14C3 16.8003 3 18.2004 3.54497 19.27C4.02433 20.2108 4.78924 20.9757 5.73005 21.455C6.79961 22 8.19974 22 11 22Z" stroke="#1A0C21" stroke-width="1.5" stroke-linecap="round" stroke-linejoin="round"/>
</svg>
