<svg width="24" height="24" viewBox="0 0 24 24" fill="none" xmlns="http://www.w3.org/2000/svg">
<path d="M3 8.40039C3 6.19125 4.79086 4.40039 7 4.40039H17C19.2091 4.40039 21 6.19125 21 8.40039V15.4004C21 17.6095 19.2091 19.4004 17 19.4004H7C4.79086 19.4004 3 17.6095 3 15.4004V8.40039Z" fill="#CDC4D8"/>
<path d="M3 9.25C2.58579 9.25 2.25 9.58579 2.25 10C2.25 10.4142 2.58579 10.75 3 10.75V9.25ZM3 10.75H21V9.25H3V10.75ZM7 5.15039H17V3.65039H7V5.15039ZM20.25 8.40039V15.4004H21.75V8.40039H20.25ZM17 18.6504H7V20.1504H17V18.6504ZM3.75 15.4004V8.40039H2.25V15.4004H3.75ZM7 18.6504C5.20507 18.6504 3.75 17.1953 3.75 15.4004H2.25C2.25 18.0237 4.37665 20.1504 7 20.1504V18.6504ZM20.25 15.4004C20.25 17.1953 18.7949 18.6504 17 18.6504V20.1504C19.6234 20.1504 21.75 18.0237 21.75 15.4004H20.25ZM17 5.15039C18.7949 5.15039 20.25 6.60547 20.25 8.40039H21.75C21.75 5.77704 19.6234 3.65039 17 3.65039V5.15039ZM7 3.65039C4.37665 3.65039 2.25 5.77704 2.25 8.40039H3.75C3.75 6.60547 5.20507 5.15039 7 5.15039V3.65039Z" fill="#1A0C21"/>
</svg>
