<svg width="24" height="24" viewBox="0 0 24 24" fill="none" xmlns="http://www.w3.org/2000/svg">
<path d="M2 9C2 5.13401 5.13401 2 9 2H15C18.866 2 22 5.13401 22 9V15C22 18.866 18.866 22 15 22H9C5.13401 22 2 18.866 2 15V9Z" fill="#CDC4D8"/>
<path d="M10.5 9.25C10.5 9.94036 9.94036 10.5 9.25 10.5C8.55964 10.5 8 9.94036 8 9.25C8 8.55964 8.55964 8 9.25 8C9.94036 8 10.5 8.55964 10.5 9.25Z" fill="#CDC4D8"/>
<path d="M16 14.75C16 15.4404 15.4404 16 14.75 16C14.0596 16 13.5 15.4404 13.5 14.75C13.5 14.0596 14.0596 13.5 14.75 13.5C15.4404 13.5 16 14.0596 16 14.75Z" fill="#CDC4D8"/>
<path d="M15 8L9 16M9 22H15C18.866 22 22 18.866 22 15V9C22 5.13401 18.866 2 15 2H9C5.13401 2 2 5.13401 2 9V15C2 18.866 5.13401 22 9 22ZM10.5 9.25C10.5 9.94036 9.94036 10.5 9.25 10.5C8.55964 10.5 8 9.94036 8 9.25C8 8.55964 8.55964 8 9.25 8C9.94036 8 10.5 8.55964 10.5 9.25ZM16 14.75C16 15.4404 15.4404 16 14.75 16C14.0596 16 13.5 15.4404 13.5 14.75C13.5 14.0596 14.0596 13.5 14.75 13.5C15.4404 13.5 16 14.0596 16 14.75Z" stroke="#1A0C21" stroke-width="1.5" stroke-linecap="round" stroke-linejoin="round"/>
</svg>
