<svg width="24" height="24" viewBox="0 0 24 24" fill="none" xmlns="http://www.w3.org/2000/svg">
<path d="M12.0027 14.7197C13.5089 14.7197 14.7299 13.5025 14.7299 12.001C14.7299 10.4995 13.5089 9.28223 12.0027 9.28223C10.4964 9.28223 9.27539 10.4995 9.27539 12.001C9.27539 13.5025 10.4964 14.7197 12.0027 14.7197Z" fill="#CDC4D8"/>
<path fill-rule="evenodd" clip-rule="evenodd" d="M14.7299 12.001C14.7299 13.5025 13.5089 14.7197 12.0027 14.7197C10.4964 14.7197 9.27539 13.5025 9.27539 12.001C9.27539 10.4995 10.4964 9.28223 12.0027 9.28223C13.5089 9.28223 14.7299 10.4995 14.7299 12.001Z" fill="#CDC4D8"/>
<path d="M12.0027 14.7197C13.5089 14.7197 14.7299 13.5025 14.7299 12.001C14.7299 10.4995 13.5089 9.28223 12.0027 9.28223C10.4964 9.28223 9.27539 10.4995 9.27539 12.001C9.27539 13.5025 10.4964 14.7197 12.0027 14.7197Z" stroke="#1A0C21" stroke-width="1.5" stroke-linecap="round" stroke-linejoin="round"/>
<path fill-rule="evenodd" clip-rule="evenodd" d="M14.7299 12.001C14.7299 13.5025 13.5089 14.7197 12.0027 14.7197C10.4964 14.7197 9.27539 13.5025 9.27539 12.001C9.27539 10.4995 10.4964 9.28223 12.0027 9.28223C13.5089 9.28223 14.7299 10.4995 14.7299 12.001Z" stroke="#1A0C21" stroke-width="1.5" stroke-linecap="round" stroke-linejoin="round"/>
</svg>
