<svg width="24" height="24" viewBox="0 0 24 24" fill="none" xmlns="http://www.w3.org/2000/svg">
<path d="M12.4396 4.2151C12.1622 4.07939 11.8378 4.07939 11.5604 4.2151L3.7966 8.01443C3.05639 8.37666 3.04744 9.42848 3.78137 9.80325L5.82979 10.8493L11.5452 13.7678C11.8309 13.9136 12.1691 13.9136 12.4548 13.7678L17.7447 11.0665L20.2186 9.80325C20.9526 9.42848 20.9436 8.37666 20.2034 8.01443L12.4396 4.2151Z" fill="#CDC4D8"/>
<path d="M5.82979 10.8493L11.5452 13.7678C11.8309 13.9136 12.1691 13.9136 12.4548 13.7678L17.7447 11.0665M5.82979 10.8493L3.78137 9.80325C3.04744 9.42848 3.05639 8.37666 3.7966 8.01443L11.5604 4.2151C11.8378 4.07939 12.1622 4.07939 12.4396 4.2151L20.2034 8.01443C20.9436 8.37666 20.9526 9.42848 20.2186 9.80325L17.7447 11.0665M5.82979 10.8493V16.3549C5.82979 16.7367 6.04715 17.0852 6.39002 17.253L11.5441 19.7767C11.8306 19.9171 12.1669 19.9122 12.4493 19.7637L17.2102 17.2598C17.5389 17.087 17.7447 16.7462 17.7447 16.3748V11.0665" stroke="#1A0C21" stroke-width="1.5" stroke-linecap="round" stroke-linejoin="round"/>
</svg>
