<svg width="24" height="24" viewBox="0 0 24 24" fill="none" xmlns="http://www.w3.org/2000/svg">
<path d="M3 9.57018C3 8.90147 3.3342 8.27701 3.8906 7.90608L11.4453 2.86961C11.7812 2.64568 12.2188 2.64568 12.5547 2.86961L20.1094 7.90608C20.6658 8.27701 21 8.90147 21 9.57018V18.4998C21 20.1567 19.6569 21.4998 18 21.4998H6C4.34315 21.4998 3 20.1567 3 18.4998V9.57018Z" fill="#CDC4D8"/>
<path d="M8 16.4998H16M11.4453 2.86961L3.8906 7.90608C3.3342 8.27701 3 8.90147 3 9.57018V18.4998C3 20.1567 4.34315 21.4998 6 21.4998H18C19.6569 21.4998 21 20.1567 21 18.4998V9.57018C21 8.90147 20.6658 8.27701 20.1094 7.90608L12.5547 2.86961C12.2188 2.64568 11.7812 2.64568 11.4453 2.86961Z" stroke="#1A0C21" stroke-width="1.5" stroke-linecap="round" stroke-linejoin="round"/>
</svg>
