<svg width="24" height="24" viewBox="0 0 24 24" fill="none" xmlns="http://www.w3.org/2000/svg">
<path fill-rule="evenodd" clip-rule="evenodd" d="M20 18.001C18.1755 20.4293 15.2712 22 12 22C7.70847 22 4.04834 19.2967 2.62961 15.5L3 14.7778L7 9L11.5 16.5L14.5 13.5L19.5 17.6667L20 18.001Z" fill="#CDC4D8"/>
<path d="M7 9L7.64312 8.61413C7.51205 8.39567 7.27904 8.25869 7.02442 8.2504C6.76979 8.2421 6.52837 8.36363 6.38336 8.57309L7 9ZM11.5 16.5L10.8569 16.8859C10.9757 17.0839 11.1791 17.2162 11.4084 17.2444C11.6376 17.2726 11.867 17.1936 12.0303 17.0303L11.5 16.5ZM14.5 13.5L14.9801 12.9238C14.6821 12.6755 14.244 12.6954 13.9697 12.9697L14.5 13.5ZM19.5 17.6667L19.0199 18.2428C19.0401 18.2597 19.0612 18.2755 19.0831 18.2901L19.5 17.6667ZM3 14.7778L2.38336 14.3509C2.36461 14.3779 2.34767 14.4062 2.33265 14.4355L3 14.7778ZM20 18.001L20.5996 18.4515V18.4515L20 18.001ZM2.62961 15.5L1.92706 15.7625H1.92706L2.62961 15.5ZM6.35688 9.38587L10.8569 16.8859L12.1431 16.1141L7.64312 8.61413L6.35688 9.38587ZM12.0303 17.0303L15.0303 14.0303L13.9697 12.9697L10.9697 15.9697L12.0303 17.0303ZM14.0199 14.0762L19.0199 18.2428L19.9801 17.0905L14.9801 12.9238L14.0199 14.0762ZM3.61664 15.2047L7.61664 9.42691L6.38336 8.57309L2.38336 14.3509L3.61664 15.2047ZM15.25 8.5C15.25 8.91421 14.9142 9.25 14.5 9.25V10.75C15.7426 10.75 16.75 9.74264 16.75 8.5H15.25ZM14.5 9.25C14.0858 9.25 13.75 8.91421 13.75 8.5H12.25C12.25 9.74264 13.2574 10.75 14.5 10.75V9.25ZM13.75 8.5C13.75 8.08579 14.0858 7.75 14.5 7.75V6.25C13.2574 6.25 12.25 7.25736 12.25 8.5H13.75ZM14.5 7.75C14.9142 7.75 15.25 8.08579 15.25 8.5H16.75C16.75 7.25736 15.7426 6.25 14.5 6.25V7.75ZM2.75 12C2.75 6.89137 6.89137 2.75 12 2.75V1.25C6.06294 1.25 1.25 6.06294 1.25 12H2.75ZM12 2.75C17.1086 2.75 21.25 6.89137 21.25 12H22.75C22.75 6.06294 17.9371 1.25 12 1.25V2.75ZM21.25 12C21.25 14.0836 20.562 16.0044 19.4004 17.5505L20.5996 18.4515C21.9497 16.6546 22.75 14.4197 22.75 12H21.25ZM19.4004 17.5505C17.7115 19.7984 15.0254 21.25 12 21.25V22.75C15.517 22.75 18.6396 21.0603 20.5996 18.4515L19.4004 17.5505ZM19.0831 18.2901L19.5831 18.6245L20.4169 17.3775L19.9169 17.0432L19.0831 18.2901ZM12 21.25C8.03152 21.25 4.64493 18.7506 3.33216 15.2375L1.92706 15.7625C3.45176 19.8428 7.38543 22.75 12 22.75V21.25ZM3.33216 15.2375C2.956 14.2308 2.75 13.1403 2.75 12H1.25C1.25 13.3223 1.48909 14.5905 1.92706 15.7625L3.33216 15.2375ZM2.33265 14.4355L1.96225 15.1577L3.29696 15.8423L3.66735 15.12L2.33265 14.4355Z" fill="#1A0C21"/>
</svg>
