<svg width="24" height="24" viewBox="0 0 24 24" fill="none" xmlns="http://www.w3.org/2000/svg">
<path d="M10.0222 18.0313C8.64451 19.409 6.41089 19.409 5.03324 18.0313C3.65559 16.6537 3.65559 14.4201 5.03324 13.0424C6.41089 11.6648 8.64451 11.6648 10.0222 13.0424C11.3998 14.4201 11.3998 16.6537 10.0222 18.0313Z" fill="#CDC4D8"/>
<path d="M10.0222 13.0424C8.64451 11.6648 6.41089 11.6648 5.03324 13.0424C3.65559 14.4201 3.65559 16.6537 5.03324 18.0313C6.41089 19.409 8.64451 19.409 10.0222 18.0313C11.3998 16.6537 11.3998 14.4201 10.0222 13.0424ZM10.0222 13.0424L14.3875 8.67711M16.8819 6.18265L19.0646 4M16.8819 6.18265L20 9.30073M16.8819 6.18265L14.3875 8.67711M14.3875 8.67711L16.2583 10.548" stroke="#1A0C21" stroke-width="1.5" stroke-linecap="round" stroke-linejoin="round"/>
</svg>
