<svg width="24" height="24" viewBox="0 0 24 24" fill="none" xmlns="http://www.w3.org/2000/svg">
<path d="M12 6.5C6.64481 6.5 2.27278 10.7095 2.0123 16.0001C1.99872 16.2759 2.22388 16.5 2.50002 16.5H21.5C21.7762 16.5 22.0013 16.2759 21.9877 16.0001C21.7273 10.7095 17.3552 6.5 12 6.5Z" fill="#CDC4D8"/>
<path d="M12 2.5V6.5M12 6.5C6.64481 6.5 2.27278 10.7095 2.0123 16.0001C1.99872 16.2759 2.22388 16.5 2.50002 16.5H21.5C21.7762 16.5 22.0013 16.2759 21.9877 16.0001C21.7273 10.7095 17.3552 6.5 12 6.5ZM8.53516 19.5C9.22678 20.6956 10.5195 21.5 12 21.5C13.4806 21.5 14.7733 20.6956 15.4649 19.5" stroke="white" stroke-width="1.5" stroke-linecap="round"/>
</svg>
