<svg width="24" height="24" viewBox="0 0 24 24" fill="none" xmlns="http://www.w3.org/2000/svg">
<path d="M18.6883 19.4545H5.31169C3.48269 19.4545 2 17.9719 2 16.1429V7.31169C2 5.48269 3.48269 4 5.31169 4H18.6883C20.5173 4 22 5.48269 22 7.31168V16.1429C22 17.9719 20.5173 19.4545 18.6883 19.4545Z" fill="#CDC4D8"/>
<path d="M2.5 6L11.3345 12.6788C11.7284 12.9766 12.2721 12.9766 12.666 12.6788L21.5 6M2.76235 18.1816L9.5 11.4161M14.5004 11.4161L21.2076 18.1816M5.31169 19.4545H18.6883C20.5173 19.4545 22 17.9719 22 16.1429V7.31168C22 5.48269 20.5173 4 18.6883 4H5.31169C3.48269 4 2 5.48269 2 7.31169V16.1429C2 17.9719 3.48269 19.4545 5.31169 19.4545Z" stroke="#1A0C21" stroke-width="1.5" stroke-linecap="round"/>
</svg>
