<svg width="24" height="24" viewBox="0 0 24 24" fill="none" xmlns="http://www.w3.org/2000/svg">
<path d="M4.88584 16.7822C7.5423 20.9937 13.1262 22.2646 17.3578 19.6207C18.7243 18.767 19.7827 17.6094 20.5 16.2914C16.9915 17.6157 12.9168 16.3433 10.8452 13.0589C8.77352 9.77449 9.39308 5.56926 12.1164 3C10.6119 3.0701 9.10441 3.51564 7.73791 4.36942C3.50629 7.01328 2.22938 12.5707 4.88584 16.7822Z" fill="#CDC4D8"/>
<path d="M14.5 8.5H16.8964C17.1192 8.5 17.2307 8.76929 17.0732 8.92678L14.9268 11.0732C14.7693 11.2307 14.8808 11.5 15.1036 11.5H17.5M19 3H21.3964C21.6192 3 21.7307 3.26929 21.5732 3.42678L19.4268 5.57322C19.2693 5.73071 19.3808 6 19.6036 6H22M17.3578 19.6207C13.1262 22.2646 7.5423 20.9937 4.88584 16.7822C2.22938 12.5707 3.50629 7.01328 7.73791 4.36942C9.10442 3.51564 10.6119 3.0701 12.1164 3C9.39308 5.56926 8.77352 9.77449 10.8452 13.0589C12.9168 16.3433 16.9915 17.6157 20.5 16.2914C19.7827 17.6094 18.7243 18.767 17.3578 19.6207Z" stroke="#1A0C21" stroke-width="1.5" stroke-linecap="round" stroke-linejoin="round"/>
</svg>
