<svg width="24" height="24" viewBox="0 0 24 24" fill="none" xmlns="http://www.w3.org/2000/svg">
<path d="M8.73005 21.455L8.38955 22.1233H8.38955L8.73005 21.455ZM21.455 19.27L20.7868 18.9295V18.9295L21.455 19.27ZM19.27 21.455L18.9295 20.7868H18.9295L19.27 21.455ZM19.27 2.54497L19.6104 1.87671V1.87671L19.27 2.54497ZM21.455 4.73005L22.1233 4.38955V4.38955L21.455 4.73005ZM8.73005 2.54497L9.07054 3.21322V3.21322L8.73005 2.54497ZM6.89368 2.975C6.60373 3.27081 6.60848 3.74566 6.90429 4.03561C7.20009 4.32556 7.67494 4.32081 7.96489 4.025L6.89368 2.975ZM7.96489 19.975C7.67494 19.6792 7.20009 19.6744 6.90429 19.9644C6.60848 20.2543 6.60373 20.7292 6.89368 21.025L7.96489 19.975ZM4 6.25C3.58579 6.25 3.25 6.58579 3.25 7C3.25 7.41421 3.58579 7.75 4 7.75V6.25ZM8 7.75C8.41421 7.75 8.75 7.41421 8.75 7C8.75 6.58579 8.41421 6.25 8 6.25V7.75ZM4 11.25C3.58579 11.25 3.25 11.5858 3.25 12C3.25 12.4142 3.58579 12.75 4 12.75V11.25ZM8 12.75C8.41421 12.75 8.75 12.4142 8.75 12C8.75 11.5858 8.41421 11.25 8 11.25V12.75ZM4 16.25C3.58579 16.25 3.25 16.5858 3.25 17C3.25 17.4142 3.58579 17.75 4 17.75V16.25ZM8 17.75C8.41421 17.75 8.75 17.4142 8.75 17C8.75 16.5858 8.41421 16.25 8 16.25V17.75ZM21.25 10V14H22.75V10H21.25ZM14 21.25C12.5875 21.25 11.5732 21.2494 10.7771 21.1844C9.9897 21.12 9.48197 20.9964 9.07054 20.7868L8.38955 22.1233C9.04769 22.4586 9.77479 22.6075 10.6549 22.6794C11.5263 22.7506 12.6122 22.75 14 22.75V21.25ZM21.25 14C21.25 15.4125 21.2494 16.4268 21.1844 17.2229C21.12 18.0103 20.9964 18.518 20.7868 18.9295L22.1233 19.6104C22.4586 18.9523 22.6075 18.2252 22.6794 17.3451C22.7506 16.4737 22.75 15.3878 22.75 14H21.25ZM14 22.75C15.3878 22.75 16.4737 22.7506 17.3451 22.6794C18.2252 22.6075 18.9523 22.4586 19.6104 22.1233L18.9295 20.7868C18.518 20.9964 18.0103 21.12 17.2229 21.1844C16.4268 21.2494 15.4125 21.25 14 21.25V22.75ZM20.7868 18.9295C20.3793 19.7291 19.7291 20.3793 18.9295 20.7868L19.6104 22.1233C20.6924 21.572 21.572 20.6924 22.1233 19.6104L20.7868 18.9295ZM14 2.75C15.4125 2.75 16.4268 2.75058 17.2229 2.81563C18.0103 2.87996 18.518 3.00359 18.9295 3.21322L19.6104 1.87671C18.9523 1.54138 18.2252 1.39252 17.3451 1.32061C16.4737 1.24942 15.3878 1.25 14 1.25V2.75ZM22.75 10C22.75 8.61224 22.7506 7.52632 22.6794 6.65494C22.6075 5.77479 22.4586 5.04768 22.1233 4.38955L20.7868 5.07054C20.9964 5.48197 21.12 5.9897 21.1844 6.77708C21.2494 7.57322 21.25 8.58749 21.25 10H22.75ZM18.9295 3.21322C19.7291 3.62068 20.3793 4.27085 20.7868 5.07054L22.1233 4.38955C21.572 3.30762 20.6924 2.42798 19.6104 1.87671L18.9295 3.21322ZM14 1.25C12.6122 1.25 11.5263 1.24942 10.6549 1.32061C9.7748 1.39252 9.04769 1.54138 8.38955 1.87671L9.07054 3.21322C9.48197 3.00359 9.9897 2.87996 10.7771 2.81563C11.5732 2.75058 12.5875 2.75 14 2.75V1.25ZM8.38955 1.87671C7.8313 2.16116 7.32689 2.53304 6.89368 2.975L7.96489 4.025C8.28511 3.69832 8.65792 3.42347 9.07054 3.21322L8.38955 1.87671ZM9.07054 20.7868C8.65791 20.5765 8.28511 20.3017 7.96489 19.975L6.89368 21.025C7.32689 21.467 7.8313 21.8388 8.38955 22.1233L9.07054 20.7868ZM4 7.75H8V6.25H4V7.75ZM4 12.75H8V11.25H4V12.75ZM4 17.75H8V16.25H4V17.75Z" fill="#1A0C21"/>
</svg>
