<svg width="24" height="24" viewBox="0 0 24 24" fill="none" xmlns="http://www.w3.org/2000/svg">
<path d="M22.7472 10.4403C21.9037 10.8006 20.9752 11 20 11C16.134 11 13 7.86599 13 4C13 3.02486 13.1994 2.0963 13.5596 1.25285C13.1376 1.24993 12.6816 1.24997 12.1862 1.25001H11.8139C9.1986 1.24978 7.68434 1.24964 6.44036 1.68493C4.2142 2.46389 2.46389 4.2142 1.68493 6.44036C1.24964 7.68434 1.24978 9.1986 1.25001 11.8139V12.1862C1.24978 14.8014 1.24964 16.3157 1.68493 17.5597C2.46389 19.7858 4.2142 21.5361 6.44036 22.3151C7.68434 22.7504 9.1986 22.7503 11.8139 22.75H12.1862C14.8014 22.7503 16.3157 22.7504 17.5597 22.3151C19.7858 21.5361 21.5361 19.7858 22.3151 17.5597C22.7504 16.3157 22.7503 14.8014 22.75 12.1862V11.8139C22.7501 11.3184 22.7501 10.8624 22.7472 10.4403Z" fill="#CDC4D8"/>
<path d="M22 10.5V15C22 18.866 18.866 22 15 22H9C5.13401 22 2 18.866 2 15V9C2 5.13401 5.13401 2 9 2H13.5M7 12.5H12M7 16.5H16M23 4C23 5.65685 21.6569 7 20 7C18.3431 7 17 5.65685 17 4C17 2.34315 18.3431 1 20 1C21.6569 1 23 2.34315 23 4Z" stroke="#1A0C21" stroke-width="1.5" stroke-linecap="round"/>
</svg>
