<svg width="24" height="24" viewBox="0 0 24 24" fill="none" xmlns="http://www.w3.org/2000/svg">
<path d="M19.1369 8.59153C20.0791 7.72963 20.2114 6.29257 19.4424 5.27312C18.5365 4.07233 16.7781 3.94983 15.7146 5.01342L13.8639 6.86411L17.2851 10.2854L19.1369 8.59153Z" fill="#CDC4D8"/>
<path d="M13.8639 6.86411L6.5112 14.2168C6.17511 14.5529 5.92369 14.964 5.77765 15.4163L4.83554 18.3341C4.71027 18.722 5.07702 19.0888 5.46498 18.9635L8.44962 17.9998C8.85903 17.8676 9.23522 17.6489 9.55266 17.3585L17.2851 10.2854M13.8639 6.86411L15.7146 5.01342C16.7781 3.94983 18.5365 4.07233 19.4424 5.27312C20.2114 6.29257 20.0791 7.72963 19.1369 8.59153L17.2851 10.2854M13.8639 6.86411L17.2851 10.2854" stroke="#1A0C21" stroke-width="1.5" stroke-linecap="round"/>
</svg>
