<svg width="24" height="24" viewBox="0 0 24 24" fill="none" xmlns="http://www.w3.org/2000/svg">
<path d="M15.3031 18.1319L5.868 8.69681C5.73977 8.56858 5.73977 8.36067 5.868 8.23244L6.17406 7.92638C7.73616 6.36428 10.2688 6.36428 11.8309 7.92638L16.9495 2.80777L21.1922 7.05041L16.0736 12.169C17.6357 13.7311 17.6357 16.2638 16.0736 17.8259L15.7675 18.1319C15.6393 18.2602 15.4314 18.2602 15.3031 18.1319Z" fill="#CDC4D8"/>
<path d="M10.5856 13.4144L4.92871 19.0712M16.0736 12.169L21.1922 7.05041M16.0736 12.169L15.3665 11.4619M16.0736 12.169C17.6357 13.7311 17.6357 16.2638 16.0736 17.8259L15.7675 18.1319C15.6393 18.2602 15.4314 18.2602 15.3031 18.1319L5.868 8.69681C5.73977 8.56858 5.73977 8.36067 5.868 8.23244L6.17406 7.92638C7.73616 6.36428 10.2688 6.36428 11.8309 7.92638M21.1922 7.05041L22.6064 8.46462M21.1922 7.05041L16.9495 2.80777M16.9495 2.80777L15.5353 1.39355M16.9495 2.80777L11.8309 7.92638M11.8309 7.92638L12.538 8.63348" stroke="#1A0C21" stroke-width="1.5" stroke-linecap="round" stroke-linejoin="round"/>
</svg>
