<svg width="24" height="24" viewBox="0 0 24 24" fill="none" xmlns="http://www.w3.org/2000/svg">
<path d="M16.3226 2L22 8H18.3226C17.218 8 16.3226 7.10457 16.3226 6V2Z" fill="#CDC4D8"/>
<path d="M2 11C2 10.1716 2.67157 9.5 3.5 9.5H14.5C15.3284 9.5 16 10.1716 16 11V16C16 16.8284 15.3284 17.5 14.5 17.5H3.5C2.67157 17.5 2 16.8284 2 16V11Z" fill="#CDC4D8"/>
<path d="M22 8V19C22 20.6569 20.6569 22 19 22H9C7.69378 22 6.58254 21.1652 6.17071 20M22 8L16.3226 2M22 8H18.3226C17.218 8 16.3226 7.10457 16.3226 6V2M16.3226 2H9C7.34315 2 6 3.34315 6 5V7M3.5 17.5H14.5C15.3284 17.5 16 16.8284 16 16V11C16 10.1716 15.3284 9.5 14.5 9.5H3.5C2.67157 9.5 2 10.1716 2 11V16C2 16.8284 2.67157 17.5 3.5 17.5Z" stroke="#1A0C21" stroke-width="1.5" stroke-linecap="round" stroke-linejoin="round"/>
<path d="M4.36544 15.5C4.5949 15.5 4.73088 15.3658 4.73088 15.1329V14.1466H5.55807C6.38527 14.1466 6.96601 13.6123 6.96601 12.8233C6.96601 12.0342 6.40227 11.5 5.58924 11.5H4.36544C4.13881 11.5 4 11.637 4 11.8671V15.1329C4 15.3658 4.13881 15.5 4.36544 15.5ZM4.73088 13.5767V12.0781H5.3966C5.92068 12.0781 6.2238 12.3493 6.2238 12.8233C6.2238 13.3027 5.91785 13.5767 5.39377 13.5767H4.73088Z" fill="#1A0C21"/>
<path d="M7.86686 15.5C8.09632 15.5 8.23229 15.3658 8.23229 15.1329V14.1466H9.05949C9.88669 14.1466 10.4674 13.6123 10.4674 12.8233C10.4674 12.0342 9.90368 11.5 9.09065 11.5H7.86686C7.64023 11.5 7.50142 11.637 7.50142 11.8671V15.1329C7.50142 15.3658 7.64023 15.5 7.86686 15.5ZM8.23229 13.5767V12.0781H8.89802C9.4221 12.0781 9.72521 12.3493 9.72521 12.8233C9.72521 13.3027 9.41926 13.5767 8.89518 13.5767H8.23229Z" fill="#1A0C21"/>
<path d="M12.3654 15.5C12.5949 15.5 12.7309 15.3658 12.7309 15.1329V12.0973H13.6657C13.864 12.0973 14 11.9822 14 11.7986C14 11.6151 13.8669 11.5 13.6657 11.5H11.068C10.8669 11.5 10.7337 11.6151 10.7337 11.7986C10.7337 11.9822 10.8697 12.0973 11.068 12.0973H12.0028V15.1329C12.0028 15.3658 12.1388 15.5 12.3654 15.5Z" fill="#1A0C21"/>
</svg>
