<svg width="24" height="24" viewBox="0 0 24 24" fill="none" xmlns="http://www.w3.org/2000/svg">
<path d="M8.97249 21.6143L8.88935 21.4548C5.59855 15.1417 6.6872 7.19524 11.5265 2.20544C11.7922 1.93152 12.2078 1.93152 12.4735 2.20544C17.3128 7.19524 18.4014 15.1417 15.1107 21.4548L15.0275 21.6143C14.9033 21.8527 14.6711 22 14.4196 22H9.58045C9.32891 22 9.09675 21.8527 8.97249 21.6143Z" fill="#CDC4D8"/>
<path d="M14 12C14 13.1046 13.1046 14 12 14C10.8954 14 10 13.1046 10 12C10 10.8954 10.8954 10 12 10C13.1046 10 14 10.8954 14 12Z" fill="#CDC4D8"/>
<path d="M10 22H3V20C3 17.581 4.71776 15.5633 7 15.1M14 22.0001H21V20.0001C21 17.5811 19.2822 15.5634 17 15.1001M8.88935 21.4548L8.97249 21.6143C9.09675 21.8527 9.32891 22 9.58045 22H14.4196C14.6711 22 14.9033 21.8527 15.0275 21.6143L15.1107 21.4548C18.4014 15.1417 17.3128 7.19524 12.4735 2.20544C12.2078 1.93152 11.7922 1.93152 11.5265 2.20544C6.6872 7.19524 5.59855 15.1417 8.88935 21.4548ZM14 12C14 13.1046 13.1046 14 12 14C10.8954 14 10 13.1046 10 12C10 10.8954 10.8954 10 12 10C13.1046 10 14 10.8954 14 12Z" stroke="#1A0C21" stroke-width="1.5" stroke-linecap="round" stroke-linejoin="round"/>
</svg>
