<svg width="24" height="24" viewBox="0 0 24 24" fill="none" xmlns="http://www.w3.org/2000/svg">
<path d="M10.9121 9.68928C11.2928 9.30866 11.4831 9.11835 11.7025 9.04704C11.8956 8.98432 12.1035 8.98432 12.2965 9.04704C12.516 9.11835 12.7063 9.30866 13.0869 9.68928L14.3102 10.9126C14.6909 11.2932 14.8812 11.4835 14.9525 11.703C15.0152 11.896 15.0152 12.104 14.9525 12.297C14.8812 12.5165 14.6909 12.7068 14.3102 13.0874L13.0869 14.3107C12.7063 14.6913 12.516 14.8817 12.2965 14.953C12.1035 15.0157 11.8956 15.0157 11.7025 14.953C11.4831 14.8817 11.2928 14.6913 10.9121 14.3107L9.68881 13.0874C9.30819 12.7068 9.11787 12.5165 9.04657 12.297C8.98385 12.104 8.98385 11.896 9.04657 11.703C9.11787 11.4835 9.30819 11.2932 9.68881 10.9126L10.9121 9.68928Z" fill="#CDC4D8"/>
<path d="M8.58995 3.30977C9.83262 2.59231 10.454 2.23358 11.1145 2.09318C11.699 1.96894 12.3031 1.96894 12.8875 2.09318C13.5481 2.23358 14.1694 2.59231 15.4121 3.30977L17.8215 4.7008C19.0641 5.41826 19.6855 5.77699 20.1373 6.27885C20.5372 6.72291 20.8392 7.24604 21.0238 7.81432C21.2325 8.4566 21.2325 9.17405 21.2325 10.609V13.391C21.2325 14.8259 21.2325 15.5434 21.0238 16.1857C20.8392 16.754 20.5372 17.2771 20.1373 17.7211C19.6855 18.223 19.0641 18.5817 17.8215 19.2992L15.4121 20.6902C14.1694 21.4077 13.5481 21.7664 12.8875 21.9068C12.3031 22.0311 11.699 22.0311 11.1145 21.9068C10.454 21.7664 9.83262 21.4077 8.58995 20.6902L6.18061 19.2992C4.93794 18.5817 4.3166 18.223 3.86472 17.7211C3.4649 17.2771 3.16287 16.754 2.97822 16.1857C2.76953 15.5434 2.76953 14.8259 2.76953 13.391V10.609C2.76953 9.17405 2.76953 8.4566 2.97822 7.81432C3.16287 7.24604 3.4649 6.72291 3.86472 6.27885C4.3166 5.77699 4.93794 5.41826 6.18061 4.7008L8.58995 3.30977Z" fill="#CDC4D8"/>
<path d="M10.9121 9.68928C11.2928 9.30866 11.4831 9.11835 11.7025 9.04704C11.8956 8.98432 12.1035 8.98432 12.2965 9.04704C12.516 9.11835 12.7063 9.30866 13.0869 9.68928L14.3102 10.9126C14.6909 11.2932 14.8812 11.4835 14.9525 11.703C15.0152 11.896 15.0152 12.104 14.9525 12.297C14.8812 12.5165 14.6909 12.7068 14.3102 13.0874L13.0869 14.3107C12.7063 14.6913 12.516 14.8817 12.2965 14.953C12.1035 15.0157 11.8956 15.0157 11.7025 14.953C11.4831 14.8817 11.2928 14.6913 10.9121 14.3107L9.68881 13.0874C9.30819 12.7068 9.11787 12.5165 9.04657 12.297C8.98385 12.104 8.98385 11.896 9.04657 11.703C9.11787 11.4835 9.30819 11.2932 9.68881 10.9126L10.9121 9.68928Z" stroke="#1A0C21" stroke-width="1.5" stroke-linecap="round" stroke-linejoin="round"/>
<path d="M8.58995 3.30977C9.83262 2.59231 10.454 2.23358 11.1145 2.09318C11.699 1.96894 12.3031 1.96894 12.8875 2.09318C13.5481 2.23358 14.1694 2.59231 15.4121 3.30977L17.8215 4.7008C19.0641 5.41826 19.6855 5.77699 20.1373 6.27885C20.5372 6.72291 20.8392 7.24604 21.0238 7.81432C21.2325 8.4566 21.2325 9.17405 21.2325 10.609V13.391C21.2325 14.8259 21.2325 15.5434 21.0238 16.1857C20.8392 16.754 20.5372 17.2771 20.1373 17.7211C19.6855 18.223 19.0641 18.5817 17.8215 19.2992L15.4121 20.6902C14.1694 21.4077 13.5481 21.7664 12.8875 21.9068C12.3031 22.0311 11.699 22.0311 11.1145 21.9068C10.454 21.7664 9.83262 21.4077 8.58995 20.6902L6.18061 19.2992C4.93794 18.5817 4.3166 18.223 3.86472 17.7211C3.4649 17.2771 3.16287 16.754 2.97822 16.1857C2.76953 15.5434 2.76953 14.8259 2.76953 13.391V10.609C2.76953 9.17405 2.76953 8.4566 2.97822 7.81432C3.16287 7.24604 3.4649 6.72291 3.86472 6.27885C4.3166 5.77699 4.93794 5.41826 6.18061 4.7008L8.58995 3.30977Z" stroke="#1A0C21" stroke-width="1.5" stroke-linecap="round" stroke-linejoin="round"/>
</svg>
