<svg width="24" height="24" viewBox="0 0 24 24" fill="none" xmlns="http://www.w3.org/2000/svg">
<path d="M3.59607 12.0174L3.14854 7.26439C3.06138 6.3387 3.623 5.47325 4.48871 5.13409C5.68177 4.66669 7.42297 3.92536 9.07123 3.00446C10.8414 2.01544 13.158 2.01544 14.9282 3.00446C16.5764 3.92537 18.3176 4.66669 19.5107 5.13409C20.3764 5.47325 20.938 6.3387 20.8509 7.26439L20.4033 12.0174C20.0685 15.5737 18.1667 18.796 15.2151 20.808L14.8159 21.0801C13.117 22.2381 10.8824 22.2381 9.18351 21.0801L8.78435 20.808C5.83275 18.796 3.93093 15.5737 3.59607 12.0174Z" fill="#CDC4D8"/>
<path d="M9.4997 12.4997L10.8633 13.9997L14.4997 9.99971M3.14854 7.26439L3.59607 12.0174C3.93093 15.5737 5.83275 18.796 8.78435 20.808L9.18351 21.0801C10.8824 22.2381 13.117 22.2381 14.8159 21.0801L15.2151 20.808C18.1667 18.796 20.0685 15.5737 20.4033 12.0174L20.8509 7.26439C20.938 6.3387 20.3764 5.47325 19.5107 5.13409C18.3176 4.66669 16.5764 3.92537 14.9282 3.00446C13.158 2.01544 10.8414 2.01544 9.07123 3.00446C7.42297 3.92536 5.68177 4.66669 4.48871 5.13409C3.623 5.47325 3.06138 6.3387 3.14854 7.26439Z" stroke="#1A0C21" stroke-width="1.5" stroke-linecap="round" stroke-linejoin="round"/>
</svg>
