<svg width="24" height="24" viewBox="0 0 24 24" fill="none" xmlns="http://www.w3.org/2000/svg">
<path d="M22 12C22 17.5228 17.5228 22 12 22C6.47715 22 2 17.5228 2 12C2 6.47715 6.47715 2 12 2C17.5228 2 22 6.47715 22 12Z" fill="#CDC4D8"/>
<path d="M17.009 14.7915C17.2359 14.4449 17.1389 13.9801 16.7924 13.7532C16.4458 13.5263 15.981 13.6233 15.7541 13.9699L17.009 14.7915ZM12 16.5L12 17.25L12 16.5ZM8.24592 13.9699C8.01903 13.6233 7.55417 13.5263 7.20762 13.7532C6.86108 13.9801 6.76407 14.4449 6.99096 14.7915L8.24592 13.9699ZM10.75 9.5C10.75 9.08579 10.4142 8.75 10 8.75C9.58579 8.75 9.25 9.08579 9.25 9.5H10.75ZM9.25 11.5C9.25 11.9142 9.58579 12.25 10 12.25C10.4142 12.25 10.75 11.9142 10.75 11.5H9.25ZM14.75 9.5C14.75 9.08579 14.4142 8.75 14 8.75C13.5858 8.75 13.25 9.08579 13.25 9.5H14.75ZM13.25 11.5C13.25 11.9142 13.5858 12.25 14 12.25C14.4142 12.25 14.75 11.9142 14.75 11.5H13.25ZM15.7541 13.9699C15.076 15.0056 13.8656 15.75 12 15.75L12 17.25C14.312 17.25 16.0227 16.2981 17.009 14.7915L15.7541 13.9699ZM12 15.75C10.1344 15.75 8.92403 15.0056 8.24592 13.9699L6.99096 14.7915C7.9773 16.298 9.68796 17.25 12 17.25L12 15.75ZM9.25 9.5V11.5H10.75V9.5H9.25ZM13.25 9.5V11.5H14.75V9.5H13.25ZM21.25 12C21.25 17.1086 17.1086 21.25 12 21.25V22.75C17.9371 22.75 22.75 17.9371 22.75 12H21.25ZM12 21.25C6.89137 21.25 2.75 17.1086 2.75 12H1.25C1.25 17.9371 6.06294 22.75 12 22.75V21.25ZM2.75 12C2.75 6.89137 6.89137 2.75 12 2.75V1.25C6.06294 1.25 1.25 6.06294 1.25 12H2.75ZM12 2.75C17.1086 2.75 21.25 6.89137 21.25 12H22.75C22.75 6.06294 17.9371 1.25 12 1.25V2.75Z" fill="#1A0C21"/>
</svg>
