<svg width="24" height="24" viewBox="0 0 24 24" fill="none" xmlns="http://www.w3.org/2000/svg">
<path d="M12 18.5C15.5899 18.5 18.5 15.5899 18.5 12C18.5 8.41015 15.5899 5.5 12 5.5C8.41015 5.5 5.5 8.41015 5.5 12C5.5 15.5899 8.41015 18.5 12 18.5Z" fill="#CDC4D8"/>
<path d="M12 3V4.8M12 19.2V21M4.8 12H3M6.8827 6.8827L5.60991 5.60991M17.1173 6.8827L18.3901 5.60991M6.8827 17.121L5.60991 18.3938M17.1173 17.121L18.3901 18.3938M21 12H19.2M15.8695 10.9865C15.7086 10.3725 15.404 9.80555 14.9807 9.33256C14.5575 8.85957 14.0277 8.4941 13.4352 8.26635M18.5 12C18.5 15.5899 15.5899 18.5 12 18.5C8.41015 18.5 5.5 15.5899 5.5 12C5.5 8.41015 8.41015 5.5 12 5.5C15.5899 5.5 18.5 8.41015 18.5 12Z" stroke="#1A0C21" stroke-width="1.5" stroke-linecap="round" stroke-linejoin="round"/>
</svg>
