<svg width="24" height="24" viewBox="0 0 24 24" fill="none" xmlns="http://www.w3.org/2000/svg">
<path d="M10.4664 3.12531C11.1903 2.40143 12.1731 1.99637 13.1968 2.00002L20.0613 2.02452C21.1169 2.02829 21.9717 2.88308 21.9755 3.93868L22 10.8032C22.0036 11.8269 21.5986 12.8098 20.8747 13.5336L13.5336 20.8747C12.0332 22.3751 9.60057 22.3751 8.10016 20.8747L3.12531 15.8998C1.6249 14.3994 1.6249 11.9668 3.12531 10.4664L10.4664 3.12531Z" fill="#CDC4D8"/>
<path d="M16.9335 8.54962C16.9335 9.61058 16.0735 10.4706 15.0125 10.4706C13.9515 10.4706 13.0915 9.61058 13.0915 8.54962C13.0915 7.48867 13.9515 6.6286 15.0125 6.6286C16.0735 6.6286 16.9335 7.48867 16.9335 8.54962Z" fill="#CDC4D8"/>
<path d="M10.4664 3.12531C11.1903 2.40143 12.1731 1.99637 13.1968 2.00002L20.0613 2.02452C21.1169 2.02829 21.9717 2.88308 21.9755 3.93868L22 10.8032C22.0036 11.8269 21.5986 12.8098 20.8747 13.5336L13.5336 20.8747C12.0332 22.3751 9.60057 22.3751 8.10016 20.8747L3.12531 15.8998C1.6249 14.3994 1.6249 11.9668 3.12531 10.4664L10.4664 3.12531Z" stroke="#1A0C21" stroke-width="1.5" stroke-linecap="round" stroke-linejoin="round"/>
<path d="M16.9335 8.54962C16.9335 9.61058 16.0735 10.4706 15.0125 10.4706C13.9515 10.4706 13.0915 9.61058 13.0915 8.54962C13.0915 7.48867 13.9515 6.6286 15.0125 6.6286C16.0735 6.6286 16.9335 7.48867 16.9335 8.54962Z" stroke="#1A0C21" stroke-width="1.5" stroke-linecap="round" stroke-linejoin="round"/>
</svg>
