<svg width="24" height="24" viewBox="0 0 24 24" fill="none" xmlns="http://www.w3.org/2000/svg">
<path d="M3 5.25C2.58579 5.25 2.25 5.58579 2.25 6C2.25 6.41421 2.58579 6.75 3 6.75V5.25ZM8.44721 3.10557L7.77639 2.77016V2.77016L8.44721 3.10557ZM21 6.75C21.4142 6.75 21.75 6.41421 21.75 6C21.75 5.58579 21.4142 5.25 21 5.25V6.75ZM15.5528 3.10557L16.2236 2.77016V2.77016L15.5528 3.10557ZM5.99854 9.95322C5.9727 9.53981 5.61662 9.22562 5.20322 9.25146C4.78981 9.2773 4.47562 9.63338 4.50146 10.0468L5.99854 9.95322ZM19.4985 10.0468C19.5244 9.63338 19.2102 9.2773 18.7968 9.25146C18.3834 9.22562 18.0273 9.53981 18.0015 9.95322L19.4985 10.0468ZM18.2813 17.4994L17.5327 17.4526V17.4526L18.2813 17.4994ZM7.50667 21.6981L7.17875 22.3726V22.3726L7.50667 21.6981ZM6.20738 20.4774L5.55463 20.8468H5.55463L6.20738 20.4774ZM16.4933 21.6981L16.1654 21.0235V21.0235L16.4933 21.6981ZM17.7926 20.4774L18.4454 20.8468V20.8468L17.7926 20.4774ZM3 6.75H7V5.25H3V6.75ZM7.67082 6.33541L9.11803 3.44098L7.77639 2.77016L6.32918 5.66459L7.67082 6.33541ZM10.2361 2.75H13.7639V1.25H10.2361V2.75ZM7 6.75H17V5.25H7V6.75ZM17 6.75H21V5.25H17V6.75ZM14.882 3.44098L16.3292 6.33541L17.6708 5.66459L16.2236 2.77016L14.882 3.44098ZM13.7639 2.75C14.2374 2.75 14.6702 3.0175 14.882 3.44098L16.2236 2.77016C15.7578 1.83851 14.8056 1.25 13.7639 1.25V2.75ZM9.11803 3.44098C9.32977 3.0175 9.7626 2.75 10.2361 2.75V1.25C9.19444 1.25 8.24222 1.83851 7.77639 2.77016L9.11803 3.44098ZM13.4906 21.25H10.5094V22.75H13.4906V21.25ZM6.46725 17.4526L5.99854 9.95322L4.50146 10.0468L4.97017 17.5462L6.46725 17.4526ZM18.0015 9.95322L17.5327 17.4526L19.0298 17.5462L19.4985 10.0468L18.0015 9.95322ZM10.5094 21.25C9.70352 21.25 9.14294 21.2494 8.70499 21.2146C8.27614 21.1805 8.02672 21.1169 7.83459 21.0235L7.17875 22.3726C7.60771 22.5811 8.06577 22.6685 8.58606 22.7099C9.09725 22.7506 9.72747 22.75 10.5094 22.75V21.25ZM4.97017 17.5462C5.01895 18.3266 5.05771 18.9556 5.13017 19.4633C5.20393 19.98 5.31974 20.4317 5.55463 20.8468L6.86012 20.1081C6.75491 19.9221 6.67591 19.6772 6.61512 19.2513C6.55304 18.8164 6.51752 18.2569 6.46725 17.4526L4.97017 17.5462ZM7.83459 21.0235C7.42451 20.8242 7.08468 20.5049 6.86012 20.1081L5.55463 20.8468C5.92889 21.5082 6.49528 22.0403 7.17875 22.3726L7.83459 21.0235ZM13.4906 22.75C14.2725 22.75 14.9027 22.7506 15.4139 22.7099C15.9342 22.6685 16.3923 22.5811 16.8212 22.3726L16.1654 21.0235C15.9733 21.1169 15.7239 21.1805 15.295 21.2146C14.8571 21.2494 14.2965 21.25 13.4906 21.25V22.75ZM17.5327 17.4526C17.4825 18.2569 17.447 18.8164 17.3849 19.2513C17.3241 19.6772 17.2451 19.9221 17.1399 20.1081L18.4454 20.8468C18.6803 20.4317 18.7961 19.98 18.8698 19.4633C18.9423 18.9556 18.9811 18.3266 19.0298 17.5462L17.5327 17.4526ZM16.8212 22.3726C17.5047 22.0403 18.0711 21.5082 18.4454 20.8468L17.1399 20.1081C16.9153 20.5049 16.5755 20.8242 16.1654 21.0235L16.8212 22.3726Z" fill="#1A0C21"/>
</svg>
